<?xml version="1.0" encoding="UTF-8"?>
<svg version="1.1" xmlns="http://www.w3.org/2000/svg" xmlns:xlink="http://www.w3.org/1999/xlink">
    <defs></defs>
    <symbol id="icon-home" viewBox="0 0 24 24">
        <path fill="currentColor"
            d="M6 19h3v-5q0-.425.288-.712T10 13h4q.425 0 .713.288T15 14v5h3v-9l-6-4.5L6 10zm-2 0v-9q0-.475.213-.9t.587-.7l6-4.5q.525-.4 1.2-.4t1.2.4l6 4.5q.375.275.588.7T20 10v9q0 .825-.588 1.413T18 21h-4q-.425 0-.712-.288T13 20v-5h-2v5q0 .425-.288.713T10 21H6q-.825 0-1.412-.587T4 19m8-6.75" />
    </symbol>
    <symbol id="icon-todos" viewBox="0 0 24 24">
        <path fill="currentColor"
            d="M8 17q.425 0 .713-.288T9 16t-.288-.712T8 15t-.712.288T7 16t.288.713T8 17m0-4q.425 0 .713-.288T9 12t-.288-.712T8 11t-.712.288T7 12t.288.713T8 13m0-4q.425 0 .713-.288T9 8t-.288-.712T8 7t-.712.288T7 8t.288.713T8 9m4 8h4q.425 0 .713-.288T17 16t-.288-.712T16 15h-4q-.425 0-.712.288T11 16t.288.713T12 17m0-4h4q.425 0 .713-.288T17 12t-.288-.712T16 11h-4q-.425 0-.712.288T11 12t.288.713T12 13m0-4h4q.425 0 .713-.288T17 8t-.288-.712T16 7h-4q-.425 0-.712.288T11 8t.288.713T12 9M5 21q-.825 0-1.412-.587T3 19V5q0-.825.588-1.412T5 3h14q.825 0 1.413.588T21 5v14q0 .825-.587 1.413T19 21zm0-2h14V5H5zM5 5v14z" />
    </symbol>
    <symbol id="icon-calendar" viewBox="0 0 24 24">
        <path fill="currentColor"
            d="M5 22q-.825 0-1.412-.587T3 20V6q0-.825.588-1.412T5 4h1V2h2v2h8V2h2v2h1q.825 0 1.413.588T21 6v14q0 .825-.587 1.413T19 22zm0-2h14V10H5zM5 8h14V6H5zm0 0V6zm7 6q-.425 0-.712-.288T11 13t.288-.712T12 12t.713.288T13 13t-.288.713T12 14m-4 0q-.425 0-.712-.288T7 13t.288-.712T8 12t.713.288T9 13t-.288.713T8 14m8 0q-.425 0-.712-.288T15 13t.288-.712T16 12t.713.288T17 13t-.288.713T16 14m-4 4q-.425 0-.712-.288T11 17t.288-.712T12 16t.713.288T13 17t-.288.713T12 18m-4 0q-.425 0-.712-.288T7 17t.288-.712T8 16t.713.288T9 17t-.288.713T8 18m8 0q-.425 0-.712-.288T15 17t.288-.712T16 16t.713.288T17 17t-.288.713T16 18" />
    </symbol>
    <symbol id="icon-setting" viewBox="0 0 24 24">
        <path fill="currentColor"
            d="M10.825 22q-.675 0-1.162-.45t-.588-1.1L8.85 18.8q-.325-.125-.612-.3t-.563-.375l-1.55.65q-.625.275-1.25.05t-.975-.8l-1.175-2.05q-.35-.575-.2-1.225t.675-1.075l1.325-1Q4.5 12.5 4.5 12.337v-.675q0-.162.025-.337l-1.325-1Q2.675 9.9 2.525 9.25t.2-1.225L3.9 5.975q.35-.575.975-.8t1.25.05l1.55.65q.275-.2.575-.375t.6-.3l.225-1.65q.1-.65.588-1.1T10.825 2h2.35q.675 0 1.163.45t.587 1.1l.225 1.65q.325.125.613.3t.562.375l1.55-.65q.625-.275 1.25-.05t.975.8l1.175 2.05q.35.575.2 1.225t-.675 1.075l-1.325 1q.025.175.025.338v.674q0 .163-.05.338l1.325 1q.525.425.675 1.075t-.2 1.225l-1.2 2.05q-.35.575-.975.8t-1.25-.05l-1.5-.65q-.275.2-.575.375t-.6.3l-.225 1.65q-.1.65-.587 1.1t-1.163.45zM11 20h1.975l.35-2.65q.775-.2 1.438-.587t1.212-.938l2.475 1.025l.975-1.7l-2.15-1.625q.125-.35.175-.737T17.5 12t-.05-.787t-.175-.738l2.15-1.625l-.975-1.7l-2.475 1.05q-.55-.575-1.212-.962t-1.438-.588L13 4h-1.975l-.35 2.65q-.775.2-1.437.588t-1.213.937L5.55 7.15l-.975 1.7l2.15 1.6q-.125.375-.175.75t-.05.8q0 .4.05.775t.175.75l-2.15 1.625l.975 1.7l2.475-1.05q.55.575 1.213.963t1.437.587zm1.05-4.5q1.45 0 2.475-1.025T15.55 12t-1.025-2.475T12.05 8.5q-1.475 0-2.487 1.025T8.55 12t1.013 2.475T12.05 15.5M12 12" />

    </symbol>
    <symbol id="icon-news" viewBox="0 0 24 24">
        <path fill="currentColor"
            d="M5 21q-.825 0-1.412-.587T3 19V5q0-.825.588-1.412T5 3h10.175q.4 0 .763.15t.637.425l3.85 3.85q.275.275.425.638t.15.762V19q0 .825-.587 1.413T19 21zm0-2h14V9h-3q-.425 0-.712-.288T15 8V5H5zm11-2q.425 0 .713-.288T17 16t-.288-.712T16 15H8q-.425 0-.712.288T7 16t.288.713T8 17zm-5-8q.425 0 .713-.288T12 8t-.288-.712T11 7H8q-.425 0-.712.288T7 8t.288.713T8 9zm5 4q.425 0 .713-.288T17 12t-.288-.712T16 11H8q-.425 0-.712.288T7 12t.288.713T8 13zM5 5v4zv14z" />
    </symbol>
    <symbol id="icon-help" viewBox="0 0 24 24">
        <path fill="currentColor"
            d="M11.95 18q.525 0 .888-.363t.362-.887t-.362-.888t-.888-.362t-.887.363t-.363.887t.363.888t.887.362m.05 4q-2.075 0-3.9-.788t-3.175-2.137T2.788 15.9T2 12t.788-3.9t2.137-3.175T8.1 2.788T12 2t3.9.788t3.175 2.137T21.213 8.1T22 12t-.788 3.9t-2.137 3.175t-3.175 2.138T12 22m0-2q3.35 0 5.675-2.325T20 12t-2.325-5.675T12 4T6.325 6.325T4 12t2.325 5.675T12 20m.1-12.3q.625 0 1.088.4t.462 1q0 .55-.337.975t-.763.8q-.575.5-1.012 1.1t-.438 1.35q0 .35.263.588t.612.237q.375 0 .638-.25t.337-.625q.1-.525.45-.937t.75-.788q.575-.55.988-1.2t.412-1.45q0-1.275-1.037-2.087T12.1 6q-.95 0-1.812.4T8.975 7.625q-.175.3-.112.638t.337.512q.35.2.725.125t.625-.425q.275-.375.688-.575t.862-.2" />
    </symbol>
    <symbol id="icon-logo" viewBox="0 0 100 100">
        <defs>
            <mask id="cutout" maskUnits="userSpaceOnUse" x="0" y="0" width="100" height="100">
                <rect width="100" height="100" fill="white"></rect>
                <path fill="black"
                    d="M29.47,64.53V36.18h6.07L36.1,40h.15a22.17,22.17,0,0,1,3.85-3.16A8.79,8.79,0,0,1,45,35.47a7.59,7.59,0,0,1,7.75,5,26.3,26.3,0,0,1,4.18-3.52,8.56,8.56,0,0,1,4.88-1.44q4.56,0,6.66,3t2.1,8.38V64.53H63.14V47.77c0-2.19-.32-3.73-1-4.61a3.47,3.47,0,0,0-3-1.31,5.13,5.13,0,0,0-2.56.78A14.73,14.73,0,0,0,53.72,45V64.53H46.28V47.77c0-2.19-.32-3.73-1-4.61a3.48,3.48,0,0,0-3-1.31,5.31,5.31,0,0,0-2.56.78A12,12,0,0,0,36.91,45V64.53Z">
                </path>
            </mask>
        </defs>
        <rect width="100" height="100" rx="24" ry="24" fill="currentColor" mask="url(#cutout)"></rect>
    </symbol>
    <symbol id="icon-moon" viewBox="0 0 24 24">
        <path fill="currentColor"
            d="M12.075 22q-2.1 0-3.937-.8t-3.2-2.162t-2.163-3.2t-.8-3.938q0-3.1 1.713-5.625t4.587-3.7q.35-.125.725-.088t.625.238q.2.175.313.488t.112.812q.05 1.975.8 3.763T13 10.975t3.2 2.15t3.775.8q.525 0 .8.088t.45.287q.2.25.263.65t-.063.725q-1.15 2.875-3.7 4.6T12.075 22m0-2q2.2 0 4.075-1.1t2.95-3.025q-2.15-.2-4.075-1.087t-3.45-2.413t-2.425-3.45T8.075 4.85Q6.15 5.925 5.063 7.813T3.975 11.9q0 3.375 2.363 5.738T12.075 20M14.3 7.3l-1.6-1.6q-.3-.3-.3-.7t.3-.7l1.6-1.6q.3-.3.7-.3t.7.3l1.6 1.6q.3.3.3.7t-.3.7l-1.6 1.6q-.3.3-.7.3t-.7-.3m5 3l-.6-.6q-.3-.3-.3-.7t.3-.7l.6-.6q.3-.3.7-.3t.7.3l.6.6q.3.3.3.7t-.3.7l-.6.6q-.3.3-.7.3t-.7-.3" />
    </symbol>
    <symbol id="icon-sun" viewBox="0 0 24 24">
        <path fill="currentColor"
            d="M12 5q-.425 0-.712-.288T11 4V2q0-.425.288-.712T12 1t.713.288T13 2v2q0 .425-.288.713T12 5m4.95 2.05q-.275-.275-.275-.687t.275-.713l1.4-1.425q.3-.3.712-.3t.713.3q.275.275.275.7t-.275.7L18.35 7.05q-.275.275-.7.275t-.7-.275M20 13q-.425 0-.713-.288T19 12t.288-.712T20 11h2q.425 0 .713.288T23 12t-.288.713T22 13zm-8 10q-.425 0-.712-.288T11 22v-2q0-.425.288-.712T12 19t.713.288T13 20v2q0 .425-.288.713T12 23M5.65 7.05l-1.425-1.4q-.3-.3-.3-.725t.3-.7q.275-.275.7-.275t.7.275L7.05 5.65q.275.275.275.7t-.275.7q-.3.275-.7.275t-.7-.275m12.7 12.725l-1.4-1.425q-.275-.3-.275-.712t.275-.688t.688-.275t.712.275l1.425 1.4q.3.275.288.7t-.288.725q-.3.3-.725.3t-.7-.3M2 13q-.425 0-.712-.288T1 12t.288-.712T2 11h2q.425 0 .713.288T5 12t-.288.713T4 13zm2.225 6.775q-.275-.275-.275-.7t.275-.7L5.65 16.95q.275-.275.687-.275t.713.275q.3.3.3.713t-.3.712l-1.4 1.4q-.3.3-.725.3t-.7-.3M12 18q-2.5 0-4.25-1.75T6 12t1.75-4.25T12 6t4.25 1.75T18 12t-1.75 4.25T12 18m0-2q1.65 0 2.825-1.175T16 12t-1.175-2.825T12 8T9.175 9.175T8 12t1.175 2.825T12 16m0-4" />
    </symbol>
    <symbol id="icon-expand" viewBox="0 0 24 24">
        <g fill="none">
            <path
                d="m12.594 23.258l-.012.002l-.071.035l-.02.004l-.014-.004l-.071-.036q-.016-.004-.024.006l-.004.01l-.017.428l.005.02l.01.013l.104.074l.015.004l.012-.004l.104-.074l.012-.016l.004-.017l-.017-.427q-.004-.016-.016-.018m.264-.113l-.014.002l-.184.093l-.01.01l-.003.011l.018.43l.005.012l.008.008l.201.092q.019.005.029-.008l.004-.014l-.034-.614q-.005-.019-.02-.022m-.715.002a.02.02 0 0 0-.027.006l-.006.014l-.034.614q.001.018.017.024l.015-.002l.201-.093l.01-.008l.003-.011l.018-.43l-.003-.012l-.01-.01z" />
            <path fill="currentColor"
                d="M9 4.5a1.5 1.5 0 1 1 0 3a1.5 1.5 0 0 1 0-3m1.5 7.5a1.5 1.5 0 1 0-3 0a1.5 1.5 0 0 0 3 0m0 6a1.5 1.5 0 1 0-3 0a1.5 1.5 0 0 0 3 0m6-6a1.5 1.5 0 1 0-3 0a1.5 1.5 0 0 0 3 0M15 16.5a1.5 1.5 0 1 1 0 3a1.5 1.5 0 0 1 0-3M16.5 6a1.5 1.5 0 1 0-3 0a1.5 1.5 0 0 0 3 0" />
        </g>
    </symbol>
    <symbol id="icon-notification" viewBox="0 0 24 24">
        <path fill="currentColor"
            d="M5 19q-.425 0-.712-.288T4 18t.288-.712T5 17h1v-7q0-2.075 1.25-3.687T10.5 4.2v-.7q0-.625.438-1.062T12 2t1.063.438T13.5 3.5v.7q2 .5 3.25 2.113T18 10v7h1q.425 0 .713.288T20 18t-.288.713T19 19zm7 3q-.825 0-1.412-.587T10 20h4q0 .825-.587 1.413T12 22m-4-5h8v-7q0-1.65-1.175-2.825T12 6T9.175 7.175T8 10z" />

    </symbol>
    <symbol id="icon-badge" viewBox="0 0 24 24">
        <path fill="currentColor"
            d="M6 18h6v-.45q0-.425-.238-.788T11.1 16.2q-.5-.225-1.012-.337T9 15.75t-1.088.113T6.9 16.2q-.425.2-.663.563T6 17.55zm8.75-1.5h2.5q.325 0 .538-.213T18 15.75t-.213-.537T17.25 15h-2.5q-.325 0-.537.213T14 15.75t.213.538t.537.212M9 15q.625 0 1.063-.437T10.5 13.5t-.437-1.062T9 12t-1.062.438T7.5 13.5t.438 1.063T9 15m5.75-1.5h2.5q.325 0 .538-.213T18 12.75t-.213-.537T17.25 12h-2.5q-.325 0-.537.213T14 12.75t.213.538t.537.212M4 22q-.825 0-1.412-.587T2 20V9q0-.825.588-1.412T4 7h5V4q0-.825.588-1.412T11 2h2q.825 0 1.413.588T15 4v3h5q.825 0 1.413.588T22 9v11q0 .825-.587 1.413T20 22zm7-13h2V4h-2z" />
    </symbol>

    <symbol id="icon-thumb" viewBox="0 0 24 24">
        <path fill="currentColor"
            d="M13.12 2.06L7.58 7.6c-.37.37-.58.88-.58 1.41V19c0 1.1.9 2 2 2h9c.8 0 1.52-.48 1.84-1.21l3.26-7.61C23.94 10.2 22.49 8 20.34 8h-5.65l.95-4.58c.1-.5-.05-1.01-.41-1.37c-.59-.58-1.53-.58-2.11.01M3 21c1.1 0 2-.9 2-2v-8c0-1.1-.9-2-2-2s-2 .9-2 2v8c0 1.1.9 2 2 2" />

    </symbol>
    <symbol id="icon-search" viewBox="0 0 24 24">
        <path fill="currentColor"
            d="M9.5 16q-2.725 0-4.612-1.888T3 9.5t1.888-4.612T9.5 3t4.613 1.888T16 9.5q0 1.1-.35 2.075T14.7 13.3l5.6 5.6q.275.275.275.7t-.275.7t-.7.275t-.7-.275l-5.6-5.6q-.75.6-1.725.95T9.5 16m0-2q1.875 0 3.188-1.312T14 9.5t-1.312-3.187T9.5 5T6.313 6.313T5 9.5t1.313 3.188T9.5 14" />
    </symbol>
    <symbol id="icon-close" viewBox="0 0 24 24">
        <path fill="currentColor"
            d="m12 13.4l-4.9 4.9q-.275.275-.7.275t-.7-.275t-.275-.7t.275-.7l4.9-4.9l-4.9-4.9q-.275-.275-.275-.7t.275-.7t.7-.275t.7.275l4.9 4.9l4.9-4.9q.275-.275.7-.275t.7.275t.275.7t-.275.7L13.4 12l4.9 4.9q.275.275.275.7t-.275.7t-.7.275t-.7-.275z" />

    </symbol>
    <symbol id="icon-chevron-left" viewBox="0 0 24 24">
        <path fill="currentColor"
            d="m10.8 12l3.9 3.9q.275.275.275.7t-.275.7t-.7.275t-.7-.275l-4.6-4.6q-.15-.15-.212-.325T8.425 12t.063-.375t.212-.325l4.6-4.6q.275-.275.7-.275t.7.275t.275.7t-.275.7z" />
    </symbol>
    <symbol id="icon-chevron-right" viewBox="0 0 24 24">
        <path fill="currentColor"
            d="M12.6 12L8.7 8.1q-.275-.275-.275-.7t.275-.7t.7-.275t.7.275l4.6 4.6q.15.15.213.325t.062.375t-.062.375t-.213.325l-4.6 4.6q-.275.275-.7.275t-.7-.275t-.275-.7t.275-.7z" />
    </symbol>
    <symbol id="icon-chevron-up" viewBox="0 0 24 24">
        <path fill="currentColor"
            d="m12 10.8l-3.9 3.9q-.275.275-.7.275t-.7-.275t-.275-.7t.275-.7l4.6-4.6q.3-.3.7-.3t.7.3l4.6 4.6q.275.275.275.7t-.275.7t-.7.275t-.7-.275z" />

    </symbol>
    <symbol id="icon-chevron-down" viewBox="0 0 24 24">
        <path fill="currentColor"
            d="M12 14.975q-.2 0-.375-.062T11.3 14.7l-4.6-4.6q-.275-.275-.275-.7t.275-.7t.7-.275t.7.275l3.9 3.9l3.9-3.9q.275-.275.7-.275t.7.275t.275.7t-.275.7l-4.6 4.6q-.15.15-.325.213t-.375.062" />
    </symbol>

    <symbol id="icon-delete" viewBox="0 0 24 24">
        <path fill="currentColor"
            d="M7 21q-.825 0-1.412-.587T5 19V6q-.425 0-.712-.288T4 5t.288-.712T5 4h4q0-.425.288-.712T10 3h4q.425 0 .713.288T15 4h4q.425 0 .713.288T20 5t-.288.713T19 6v13q0 .825-.587 1.413T17 21zM17 6H7v13h10zm-7 11q.425 0 .713-.288T11 16V9q0-.425-.288-.712T10 8t-.712.288T9 9v7q0 .425.288.713T10 17m4 0q.425 0 .713-.288T15 16V9q0-.425-.288-.712T14 8t-.712.288T13 9v7q0 .425.288.713T14 17M7 6v13z" />

    </symbol>

    <symbol id="icon-alarm" viewBox="0 0 24 24">
        <path fill="currentColor"
            d="M13 12.6V9q0-.425-.288-.712T12 8t-.712.288T11 9v3.975q0 .2.075.388t.225.337l2.8 2.8q.275.275.7.275t.7-.275t.275-.7t-.275-.7zM12 22q-1.875 0-3.512-.712t-2.85-1.925t-1.925-2.85T3 13t.713-3.512t1.924-2.85t2.85-1.925T12 4t3.513.713t2.85 1.925t1.925 2.85T21 13t-.712 3.513t-1.925 2.85t-2.85 1.925T12 22M2.05 7.3q-.275-.275-.275-.7t.275-.7L4.9 3.05q.275-.275.7-.275t.7.275t.275.7t-.275.7L3.45 7.3q-.275.275-.7.275t-.7-.275m19.9 0q-.275.275-.7.275t-.7-.275L17.7 4.45q-.275-.275-.275-.7t.275-.7t.7-.275t.7.275l2.85 2.85q.275.275.275.7t-.275.7M12 20q2.925 0 4.963-2.037T19 13t-2.037-4.962T12 6T7.038 8.038T5 13t2.038 4.963T12 20" />
    </symbol>

    <symbol id="icon-plus" viewBox="0 0 24 24">
        <path fill="currentColor"
            d="M11 13H6q-.425 0-.712-.288T5 12t.288-.712T6 11h5V6q0-.425.288-.712T12 5t.713.288T13 6v5h5q.425 0 .713.288T19 12t-.288.713T18 13h-5v5q0 .425-.288.713T12 19t-.712-.288T11 18z" />

    </symbol>

    <symbol id="icon-check" viewBox="0 0 24 24">
        <path fill="currentColor"
            d="m9.55 15.15l8.475-8.475q.3-.3.7-.3t.7.3t.3.713t-.3.712l-9.175 9.2q-.3.3-.7.3t-.7-.3L4.55 13q-.3-.3-.288-.712t.313-.713t.713-.3t.712.3z" />

    </symbol>

    <symbol id="icon-reply" viewBox="0 0 24 24">
        <path fill="currentColor"
            d="M13.3 20.275q-.3-.3-.3-.7t.3-.7L16.175 16H7q-.825 0-1.412-.587T5 14V5q0-.425.288-.712T6 4t.713.288T7 5v9h9.175l-2.9-2.9q-.3-.3-.288-.7t.288-.7q.3-.3.7-.312t.7.287L19.3 14.3q.15.15.212.325t.063.375t-.063.375t-.212.325l-4.575 4.575q-.3.3-.712.3t-.713-.3" />

    </symbol>

    <symbol id="icon-image" viewBox="0 0 24 24">
        <path fill="currentColor"
            d="M5 21q-.825 0-1.412-.587T3 19V5q0-.825.588-1.412T5 3h14q.825 0 1.413.588T21 5v14q0 .825-.587 1.413T19 21zm0-2h14V5H5zm0 0V5zm2-2h10q.3 0 .45-.275t-.05-.525l-2.75-3.675q-.15-.2-.4-.2t-.4.2L11.25 16L9.4 13.525q-.15-.2-.4-.2t-.4.2l-2 2.675q-.2.25-.05.525T7 17" />

    </symbol>

    <symbol id="icon-overflow" viewBox="0 0 24 24">
        <path fill="currentColor"
            d="M12 20q-.825 0-1.412-.587T10 18t.588-1.412T12 16t1.413.588T14 18t-.587 1.413T12 20m0-6q-.825 0-1.412-.587T10 12t.588-1.412T12 10t1.413.588T14 12t-.587 1.413T12 14m0-6q-.825 0-1.412-.587T10 6t.588-1.412T12 4t1.413.588T14 6t-.587 1.413T12 8" />
    </symbol>
    <symbol id="icon-edit" viewBox="0 0 24 24">
        <path fill="currentColor"
            d="M5 21q-.825 0-1.412-.587T3 19V5q0-.825.588-1.412T5 3h6.525q.5 0 .75.313t.25.687t-.262.688T11.5 5H5v14h14v-6.525q0-.5.313-.75t.687-.25t.688.25t.312.75V19q0 .825-.587 1.413T19 21zm4-7v-2.425q0-.4.15-.763t.425-.637l8.6-8.6q.3-.3.675-.45t.75-.15q.4 0 .763.15t.662.45L22.425 3q.275.3.425.663T23 4.4t-.137.738t-.438.662l-8.6 8.6q-.275.275-.637.438t-.763.162H10q-.425 0-.712-.288T9 14m12.025-9.6l-1.4-1.4zM11 13h1.4l5.8-5.8l-.7-.7l-.725-.7L11 11.575zm6.5-6.5l-.725-.7zl.7.7z" />
    </symbol>
    <symbol id="icon-spinner" viewBox="0 0 24 24">
        <path fill="currentColor" d="M23 12c0 6.075-4.925 11-11 11S1 18.075 1 12S5.925 1 12 1v2a9 9 0 1 0 9 9z" />
    </symbol>
</svg>